<svg xmlns="http://www.w3.org/2000/svg" viewBox="0 0 1024 576" width="1024" height="576">
  <rect width="1024" height="576" fill="#FFFFFF"/>
  <line x1="28" y1="40" x2="998" y2="40" stroke="#4F4F4F" stroke-width="1.5"/>
  <g transform="translate(875 12) scale(0.48)">
    <path d="M57.5444 37.4628L57.9714 35.9728C58.49 34.2091 58.2968 32.5671 57.4326 31.371C56.6396 30.2662 55.3179 29.6175 53.7115 29.5364L23.3126 29.1512C23.1093 29.1411 22.9364 29.0499 22.8348 28.8978C22.7331 28.7458 22.7026 28.5431 22.7738 28.3505C22.8754 28.0566 23.1703 27.8234 23.4753 27.8133L54.1487 27.4281C57.7884 27.2659 61.723 24.3164 63.1057 20.7282L64.8544 16.167C64.9053 16.0453 64.9256 15.9136 64.9256 15.7818C64.9256 15.7109 64.9154 15.6399 64.9053 15.569C62.9329 6.65938 54.9519 0 45.4255 0C36.6414 0 29.1789 5.65591 26.505 13.5113C24.7766 12.2241 22.5704 11.5348 20.1914 11.7679C15.9721 12.1835 12.5866 15.569 12.1697 19.7754C12.0579 20.8701 12.1494 21.9141 12.4036 22.9074C5.52061 23.1102 0 28.7357 0 35.6383C0 36.2667 0.0508343 36.8749 0.132169 37.4831C0.172837 37.777 0.427008 37.9899 0.721847 37.9899L56.8328 38C56.8429 38 56.8429 38 56.8531 38C57.1683 37.9899 57.4529 37.777 57.5444 37.4628Z" fill="#F6821F"/>
    <path d="M67.6703 16.5015C67.3857 16.5015 67.1111 16.5116 66.8265 16.5217C66.7756 16.5217 66.735 16.5319 66.6943 16.5521C66.552 16.6028 66.43 16.7245 66.3893 16.8765L65.1896 20.9917C64.6711 22.7554 64.8643 24.3974 65.7285 25.5935C66.5215 26.6983 67.8432 27.347 69.4495 27.4281L75.9258 27.8133C76.119 27.8234 76.2817 27.9146 76.3833 28.0667C76.4952 28.2187 76.5155 28.4214 76.4545 28.614C76.3528 28.908 76.058 29.1411 75.753 29.1512L69.0225 29.5364C65.3726 29.7087 61.4279 32.6482 60.0452 36.2363L59.5572 37.5033C59.4657 37.7365 59.6385 37.9797 59.8723 37.9899C59.8825 37.9899 59.8825 37.9899 59.8927 37.9899H83.063C83.3375 37.9899 83.5815 37.8074 83.6628 37.5439C84.0695 36.1147 84.283 34.6146 84.283 33.0536C84.283 23.921 76.8409 16.5015 67.6703 16.5015Z" fill="#FBAD41"/>
    <path d="M109.833 23.9312H113.666V34.3814H120.376V37.7263H109.833V23.9312Z" fill="#222222"/>
    <path d="M124.351 30.8643V30.8238C124.351 26.8606 127.553 23.6475 131.823 23.6475C136.093 23.6475 139.255 26.82 139.255 30.7832V30.8238C139.255 34.787 136.053 38.0001 131.783 38.0001C127.513 38.0001 124.351 34.8275 124.351 30.8643ZM135.341 30.8643V30.8238C135.341 28.8371 133.897 27.0937 131.783 27.0937C129.688 27.0937 128.285 28.7864 128.285 30.7832V30.8238C128.285 32.8104 129.729 34.5538 131.823 34.5538C133.938 34.5538 135.341 32.8611 135.341 30.8643Z" fill="#222222"/>
    <path d="M143.952 31.6751V23.9312H147.846V31.6041C147.846 33.5908 148.853 34.5436 150.398 34.5436C151.943 34.5436 152.95 33.6415 152.95 31.7055V23.9413H156.844V31.594C156.844 36.0539 154.292 38 150.357 38C146.423 37.9797 143.952 35.993 143.952 31.6751Z" fill="#222222"/>
    <path d="M162.721 23.9312H168.058C172.999 23.9312 175.867 26.7692 175.867 30.7527V30.7932C175.867 34.7767 172.959 37.7364 167.977 37.7364H162.721V23.9312ZM168.119 34.3409C170.417 34.3409 171.932 33.084 171.932 30.8541V30.8135C171.932 28.6039 170.407 27.3267 168.119 27.3267H166.554V34.3409H168.119Z" fill="#222222"/>
    <path d="M181.438 23.9312H192.519V27.276H185.281V29.6276H191.828V32.8002H185.281V37.7263H181.438V23.9312Z" fill="#222222"/>
    <path d="M197.857 23.9312H201.69V34.3814H208.39V37.7263H197.857V23.9312Z" fill="#222222"/>
    <path d="M218.425 23.8301H222.125L228.022 37.7266H223.905L222.898 35.2635H217.561L216.574 37.7266H212.538L218.425 23.8301ZM221.78 32.2835L220.234 28.3609L218.669 32.2835H221.78Z" fill="#222222"/>
    <path d="M232.953 23.9312H239.501C241.615 23.9312 243.079 24.4886 244.005 25.4313C244.818 26.2219 245.235 27.2862 245.235 28.6444V28.685C245.235 30.7933 244.106 32.192 242.388 32.9218L245.692 37.7364H241.259L238.474 33.5604H236.786V37.7364H232.953V23.9312ZM239.318 30.55C240.619 30.55 241.371 29.9215 241.371 28.9181V28.8775C241.371 27.793 240.578 27.2456 239.297 27.2456H236.786V30.5601H239.318V30.55Z" fill="#222222"/>
    <path d="M250.766 23.9312H261.898V27.1848H254.568V29.2728H261.207V32.2832H254.568V34.4726H262V37.7263H250.766V23.9312Z" fill="#222222"/>
    <path d="M101.435 32.4861C100.896 33.6923 99.7674 34.5538 98.2627 34.5538C96.1683 34.5538 94.7246 32.8206 94.7246 30.8238V30.7832C94.7246 28.7966 96.1276 27.0937 98.222 27.0937C99.7979 27.0937 101.008 28.0668 101.516 29.3845H105.562C104.912 26.1004 102.024 23.6475 98.2627 23.6475C93.9926 23.6475 90.79 26.8606 90.79 30.8238V30.8643C90.79 34.8275 93.9519 38.0001 98.222 38.0001C101.872 38.0001 104.729 35.6384 105.481 32.476H101.435V32.4861Z" fill="#222222"/>
  </g>
</svg>
